<?xml version="1.0" encoding="utf-8"?>
<!-- Generator: Adobe Illustrator 27.5.0, SVG Export Plug-In . SVG Version: 6.00 Build 0)  -->
<svg version="1.1" id="Capa_2" xmlns="http://www.w3.org/2000/svg" xmlns:xlink="http://www.w3.org/1999/xlink" x="0px" y="0px"
	 viewBox="0 0 2372 1898" style="enable-background:new 0 0 2372 1898;" xml:space="preserve">
<path style="fill:#FBC26E;" d="M2118.552,725.124l10.353-22.887l3.487-27.309c-7.584-2.611-15.761-4.915-24.293-6.802V498.514
	c3.434,0.748,6.918,1.577,10.453,2.496l10.353-22.887l3.487-27.309c-3.897-1.342-7.954-2.601-12.131-3.766
	c1.382-2.646,2.65-5.369,3.772-8.151l0.323-0.812l0.429-1.121c0.474-1.261,0.917-2.531,1.326-3.81
	c0.178-0.553,0.349-1.108,0.514-1.663c0.163-0.556,0.321-1.114,0.472-1.672c0.228-0.838,0.439-1.678,0.636-2.522
	c0.131-0.562,0.255-1.125,0.371-1.689l0.17-0.846c0.764-3.952,1.171-7.94,1.143-11.906l-0.012-0.85
	c-0.024-1.112-0.086-2.221-0.181-3.328l-0.012-0.137c-0.146-1.613-0.368-3.22-0.672-4.815l-0.063-0.324l-0.321-1.497
	c-0.321-1.385-0.707-2.762-1.16-4.125c-0.18-0.544-0.37-1.083-0.57-1.618c-0.2-0.534-0.408-1.063-0.625-1.586
	c-0.65-1.571-1.378-3.098-2.174-4.583l-0.817-1.473c-0.42-0.73-0.855-1.451-1.306-2.163c-0.451-0.711-0.917-1.414-1.395-2.109
	c-0.479-0.694-0.972-1.381-1.478-2.06l-1.025-1.348c-0.522-0.669-1.054-1.331-1.597-1.986c-0.723-0.874-1.466-1.737-2.224-2.589
	c-0.947-1.066-1.919-2.116-2.909-3.155l-1.196-1.24l-0.604-0.616l-0.609-0.613c-0.614-0.617-1.233-1.231-1.857-1.841
	c-0.606-0.593-1.216-1.184-1.829-1.773c-0.53-0.51-1.063-1.019-1.597-1.527l-0.903-0.856l-0.067-0.064
	c-0.606-0.573-1.213-1.145-1.821-1.717l-0.072-0.069l-1.188-1.117c-0.959-0.904-1.915-1.807-2.865-2.712l-0.609-0.581
	c-0.934-0.894-1.861-1.79-2.777-2.69c-4.062-3.996-7.951-8.173-11.656-12.513c-0.824-0.964-1.638-1.937-2.443-2.917
	c-7.732-9.415-14.616-19.555-20.552-30.242v-74.645c0-0.771-0.626-1.395-1.395-1.395c-0.768,0-1.395,0.624-1.395,1.395v73.758
	c-9.417,17.151-21.267,32.911-35.141,46.56c-12.988,12.777-28.32,24.657-34.112,42.085c-5.31,15.978-1.322,33.602,6.444,48.706
	c-5.105,1.281-10.032,2.72-14.699,4.327l3.486,27.34l0.019-0.005l10.342,22.861c3.542-0.921,7.055-1.752,10.531-2.501v169.895
	c-8.586,1.755-16.82,3.922-24.378,6.524l3.486,27.34l0.019-0.006l10.342,22.862c3.542-0.921,7.055-1.752,10.531-2.501v156.372
	c-8.586,1.755-16.82,3.921-24.378,6.525l3.486,27.34l0.019-0.005l10.342,22.862c3.542-0.922,7.055-1.752,10.531-2.501v153.664
	h-86.366V654.705h1.159c7.04,0,12.801-5.76,12.801-12.801v-0.194l0.001-0.018l-0.001-0.013v-0.198
	c0-7.041-5.76-12.802-12.801-12.802h-17.083c0.128-11.394,0.75-22.797-0.436-34.141c-1.481-14.147-6.067-28.539-16.772-39.514
	c-21.199-21.732-60.167-24.801-84.638-43.941c-12.261-9.59-19.843-22.515-24.009-36.285v-74.15c0-0.771-0.626-1.395-1.394-1.395
	c-0.768,0-1.395,0.624-1.395,1.395v72.117l-0.113,0.402l-0.005,0.139c-4.062,14.326-11.743,27.842-24.446,37.778
	c-24.471,19.14-63.439,22.21-84.637,43.941c-10.705,10.974-15.292,25.367-16.771,39.514c-0.929,8.876-0.75,17.789-0.566,26.705h0
	c0.021,1.042,0.043,2.084,0.062,3.126l0.002,0.077c0.018,1.001,0.036,2.001,0.05,3.002l0.003,0.203l0.01,1.028h-24.715
	c-7.041,0-12.802,5.761-12.802,12.802v0.422c0,7.041,5.761,12.801,12.802,12.801h8.709v432.173h-94.889V945.721h3.047
	c14.857,0,27.013-12.156,27.013-27.013v-0.891c0-14.857-12.157-27.013-27.013-27.013h-0.419l-0.027,0h-37.35
	c0.47-24.379,1.284-48.759-1.254-73.028c-3.655-34.932-14.979-70.468-41.412-97.566c-52.344-53.659-148.563-61.238-208.986-108.498
	c-31.635-24.742-50.661-58.474-60.621-94.186v-63.996c0.818,0.021,1.638,0.031,2.46,0.031c36.773,0,68.659-20.913,84.421-51.493
	c-16.531,13.977-37.902,22.409-61.244,22.409c-52.422,0-94.918-42.496-94.918-94.917c0-15.649,3.79-30.412,10.497-43.425
	c-20.593,17.411-33.673,43.43-33.673,72.509c0,49.714,38.22,90.499,86.879,94.579v63.993l-0.245,0.874l-0.009,0.349
	c-10.03,35.374-29.001,68.742-60.365,93.273c-60.422,47.26-156.642,54.839-208.985,108.498
	c-26.434,27.099-37.758,62.635-41.412,97.566c-2.293,21.917-1.851,43.924-1.398,65.94c0.049,2.363,0.096,4.726,0.142,7.088H831.85
	l-0.027,0h-0.418c-14.857,0-27.012,12.155-27.012,27.013v0.891c0,14.857,12.155,27.013,27.012,27.013h3.047v141.157H735.81V654.705
	h1.159c7.04,0,12.801-5.76,12.801-12.801v-0.194l0.001-0.018l-0.001-0.013v-0.198c0-7.041-5.76-12.802-12.801-12.802h-17.083
	c0.128-11.394,0.75-22.797-0.437-34.141c-1.48-14.147-6.066-28.539-16.771-39.514c-21.199-21.732-60.167-24.801-84.638-43.941
	c-12.449-9.737-20.074-22.911-24.198-36.919v-73.516c0-0.771-0.626-1.395-1.394-1.395c-0.768,0-1.394,0.624-1.394,1.395v72.908
	c-4.08,14.234-11.746,27.65-24.374,37.527c-24.471,19.14-63.439,22.21-84.637,43.941c-10.705,10.974-15.292,25.367-16.772,39.514
	c-0.929,8.881-0.749,17.798-0.566,26.719c0.021,1.02,0.042,2.04,0.061,3.059l0.003,0.182c0.019,1.029,0.039,2.058,0.052,3.086v0.007
	l0.011,1.088h-24.716c-7.041,0-12.802,5.761-12.802,12.802v0.422c0,7.041,5.761,12.801,12.802,12.801h8.709v432.173H369.48V933.219
	c3.433,0.748,6.918,1.577,10.452,2.496l10.353-22.887l3.487-27.309c-7.583-2.612-15.76-4.915-24.292-6.802V722.628
	c3.433,0.748,6.918,1.577,10.452,2.496l10.353-22.887l3.487-27.309c-7.583-2.611-15.76-4.914-24.292-6.802V498.514
	c3.433,0.748,6.918,1.577,10.452,2.496l10.353-22.887l3.487-27.309c-3.896-1.342-7.953-2.601-12.131-3.766
	c3.261-6.24,5.884-12.922,7.472-19.751l0.191-0.843c0.433-1.97,0.78-3.951,1.029-5.937l0.101-0.851
	c0.476-4.256,0.503-8.525-0.013-12.737c-0.068-0.562-0.147-1.122-0.235-1.682c-0.123-0.783-0.267-1.562-0.43-2.34l-0.219-1.002
	c-0.129-0.554-0.268-1.107-0.417-1.658c-0.224-0.826-0.471-1.649-0.743-2.468c-0.724-2.178-1.598-4.27-2.595-6.288
	c-0.251-0.504-0.508-1.004-0.773-1.499c-0.531-0.991-1.09-1.964-1.678-2.921l-0.901-1.423c-0.766-1.176-1.574-2.328-2.416-3.46
	c-1.516-2.036-3.142-4.005-4.847-5.923l-1.148-1.272c-1.352-1.476-2.747-2.923-4.169-4.352c-0.615-0.617-1.234-1.231-1.859-1.841
	c-0.606-0.593-1.216-1.184-1.828-1.773l-1.307-1.249l-1.194-1.133l-0.068-0.064c-0.606-0.573-1.213-1.145-1.819-1.717l-0.074-0.069
	l-1.186-1.117c-0.959-0.904-1.916-1.807-2.866-2.712l-0.608-0.581c-0.934-0.894-1.861-1.79-2.777-2.69
	c-4.062-3.996-7.951-8.173-11.656-12.513c-0.824-0.964-1.638-1.937-2.443-2.917c-7.731-9.415-14.615-19.555-20.551-30.241v-74.646
	c0-0.771-0.626-1.395-1.395-1.395s-1.395,0.624-1.395,1.395v73.757c-9.417,17.151-21.267,32.912-35.141,46.561
	c-12.987,12.777-28.32,24.657-34.112,42.085c-5.311,15.978-1.322,33.603,6.444,48.706c-5.105,1.281-10.032,2.72-14.701,4.327
	l3.488,27.34l0.019-0.005l10.341,22.861c3.542-0.922,7.056-1.752,10.531-2.502v169.896c-8.586,1.755-16.82,3.922-24.379,6.524
	l3.488,27.34l0.019-0.006l10.341,22.862c3.542-0.921,7.056-1.752,10.531-2.501v156.372c-8.586,1.755-16.82,3.921-24.379,6.525
	l3.488,27.34l0.019-0.005l10.341,22.862c3.542-0.922,7.056-1.752,10.531-2.502v730.17h1845.801v-576.506h-1.397V933.219
	c3.434,0.748,6.918,1.577,10.453,2.496l10.353-22.887l3.487-27.309c-7.584-2.612-15.761-4.915-24.293-6.802V722.628
	C2111.533,723.376,2115.017,724.205,2118.552,725.124z"/>
<path style="fill:#F9BB59;" d="M2118.552,725.124l10.353-22.887l3.486-27.309c-7.583-2.612-15.759-4.915-24.292-6.802V498.514
	c3.434,0.748,6.918,1.577,10.453,2.497l10.353-22.887l3.486-27.309c-3.895-1.342-7.953-2.6-12.131-3.766
	c7.955-15.227,12.111-33.091,6.735-49.267c-5.791-17.429-21.124-29.309-34.111-42.086c-13.637-13.414-25.318-28.868-34.655-45.677
	c-0.553-0.996-1.101-1.997-1.637-3.003c-0.379,0.711-0.765,1.418-1.152,2.124c-9.416,17.15-21.266,32.908-35.138,46.555
	c-12.989,12.777-28.319,24.657-34.113,42.086c-5.311,15.977-1.321,33.603,6.444,48.706c-5.104,1.281-10.031,2.72-14.699,4.327
	l3.486,27.34l0.019-0.006l10.342,22.862c3.543-0.922,7.054-1.753,10.532-2.502v169.896c-8.587,1.755-16.821,3.921-24.379,6.524
	l3.486,27.34l0.019-0.006l10.342,22.862c3.543-0.921,7.054-1.752,10.532-2.501v156.372c-8.587,1.755-16.821,3.922-24.379,6.525
	l3.486,27.34l0.019-0.006l10.342,22.862c3.543-0.921,7.054-1.752,10.532-2.502v153.664h-86.367V654.705h1.157
	c7.042,0,12.802-5.761,12.802-12.801v-0.423c0-7.041-5.761-12.801-12.802-12.801h-17.082c0.128-11.394,0.75-22.797-0.436-34.141
	c-1.482-14.147-6.067-28.539-16.772-39.514c-21.199-21.732-60.167-24.801-84.638-43.941c-12.259-9.587-19.84-22.508-24.006-36.275
	c-0.636-2.1-1.194-4.219-1.675-6.35c-0.333,1.482-0.706,2.958-1.114,4.426c-4.03,14.483-11.739,28.166-24.567,38.199
	c-24.47,19.14-63.439,22.21-84.637,43.941c-10.705,10.974-15.291,25.367-16.772,39.514c-1.186,11.343-0.565,22.747-0.436,34.141
	h-24.719c-7.041,0-12.801,5.761-12.801,12.801v0.423c0,7.04,5.76,12.801,12.801,12.801h8.709v432.173h-94.887v576.506h575.422
	v-576.506h-1.397V933.219c3.434,0.748,6.918,1.577,10.453,2.496l10.353-22.887l3.486-27.309c-7.583-2.612-15.759-4.915-24.292-6.803
	V722.628C2111.533,723.376,2115.017,724.205,2118.552,725.124z"/>
<rect x="1869.932" y="654.706" style="fill:#F7A93F;" width="46.015" height="432.173"/>
<path style="fill:#F09B34;" d="M1534.073,1151.271h468.241v-64.392h-468.241V945.721h-134.981
	c59.937,74.252,95.479,166.6,95.479,266.701c0,245.168-213.088,443.915-475.949,443.915c-65.299,0-127.518-12.275-184.17-34.47
	v41.517h699.621V1151.271z"/>
<path style="fill:#F9BB59;" d="M735.811,1086.878V654.705h1.158c7.042,0,12.802-5.761,12.802-12.801v-0.423
	c0-7.041-5.76-12.801-12.802-12.801h-17.083c0.129-11.394,0.751-22.797-0.437-34.141c-1.48-14.147-6.065-28.539-16.771-39.514
	c-21.199-21.732-60.167-24.801-84.638-43.941c-12.452-9.739-20.078-22.916-24.2-36.926c-0.555-1.886-1.049-3.788-1.48-5.698
	c-0.385,1.711-0.824,3.414-1.309,5.106c-4.081,14.231-11.745,27.643-24.372,37.519c-24.47,19.14-63.439,22.21-84.637,43.941
	C471.336,566,466.75,580.392,465.27,594.539c-1.187,11.343-0.565,22.747-0.436,34.141h-24.719c-7.041,0-12.801,5.761-12.801,12.801
	v0.423c0,7.04,5.76,12.801,12.801,12.801h8.709v432.173H369.48V933.219c3.434,0.748,6.918,1.577,10.453,2.496l10.353-22.887
	l3.487-27.309c-7.584-2.612-15.76-4.915-24.293-6.803V722.628c3.434,0.748,6.918,1.577,10.453,2.496l10.353-22.887l3.487-27.309
	c-7.584-2.612-15.76-4.915-24.293-6.803V498.514c3.434,0.748,6.918,1.577,10.453,2.497l10.353-22.887l3.487-27.309
	c-3.897-1.342-7.953-2.6-12.131-3.766c7.956-15.227,12.111-33.091,6.735-49.267c-5.792-17.429-21.125-29.309-34.113-42.086
	c-13.634-13.413-25.316-28.867-34.652-45.676c-0.553-0.997-1.101-1.997-1.637-3.004v-0.001h-0.001h-0.001v0.001
	c-0.379,0.711-0.763,1.417-1.151,2.122c-9.416,17.15-21.266,32.91-35.139,46.557c-12.988,12.777-28.32,24.657-34.112,42.086
	c-5.31,15.977-1.321,33.603,6.445,48.706c-5.106,1.281-10.033,2.72-14.701,4.327l3.487,27.34l0.019-0.006l10.341,22.862
	c3.542-0.922,7.056-1.753,10.532-2.502v169.895c-8.586,1.755-16.819,3.922-24.379,6.524l3.487,27.34l0.019-0.006l10.341,22.862
	c3.542-0.921,7.056-1.752,10.532-2.502v156.372c-8.586,1.755-16.819,3.922-24.379,6.525l3.487,27.34l0.019-0.006l10.341,22.862
	c3.542-0.922,7.056-1.752,10.532-2.502v730.17h570.756v-576.506H735.811z"/>
<rect x="369.48" y="1086.879" style="fill:#F09B34;" width="464.971" height="64.392"/>
<path style="fill:#146071;" d="M1707.259,809.853v152.893h132.042V809.853c0-7.303-5.686-13.332-12.847-13.906
	c1.771-7.133,0.426-15.484-3.22-21.695c-5.313-9.052-14.355-15.058-23.516-19.828c-8.935-4.654-18.368-8.505-26.439-14.592
	c-8.071,6.087-17.503,9.939-26.438,14.592c-9.162,4.771-18.203,10.776-23.517,19.828c-3.646,6.21-4.99,14.562-3.219,21.695
	C1712.945,796.521,1707.259,802.55,1707.259,809.853z"/>
<path style="fill:#F9BB59;" d="M1537.12,945.721c14.857,0,27.013-12.156,27.013-27.013v-0.891c0-14.857-12.156-27.013-27.013-27.013
	H831.406c-14.857,0-27.014,12.156-27.014,27.013v0.891c0,14.857,12.156,27.013,27.014,27.013H1537.12z"/>
<path style="fill:#146071;" d="M685.231,1382.499c3.067-12.352,0.74-26.816-5.575-37.572c-9.202-15.676-24.861-26.076-40.727-34.339
	c-15.474-8.059-31.808-14.73-45.786-25.271c-13.977,10.542-30.312,17.212-45.786,25.271c-15.865,8.262-31.524,18.662-40.726,34.339
	c-6.313,10.755-8.642,25.219-5.574,37.572c-12.404,0.995-22.249,11.435-22.249,24.083v256.802h228.674v-256.802
	C707.481,1393.934,697.634,1383.494,685.231,1382.499z"/>
<path style="fill:#146071;" d="M527.123,809.853v152.893h132.042V809.853c0-7.303-5.686-13.332-12.847-13.906
	c1.771-7.133,0.426-15.484-3.22-21.695c-5.314-9.052-14.355-15.058-23.517-19.828c-8.935-4.654-18.366-8.505-26.438-14.592
	c-8.071,6.087-17.503,9.939-26.438,14.592c-9.162,4.771-18.203,10.776-23.517,19.828c-3.645,6.21-4.99,14.562-3.219,21.695
	C532.808,796.521,527.123,802.55,527.123,809.853z"/>
<path style="fill:#146071;" d="M1881.103,1382.499c3.068-12.352,0.738-26.816-5.575-37.572
	c-9.201-15.676-24.86-26.076-40.725-34.339c-15.474-8.059-31.809-14.73-45.786-25.271c-13.979,10.542-30.313,17.212-45.786,25.271
	c-15.866,8.262-31.524,18.662-40.727,34.339c-6.314,10.755-8.643,25.219-5.575,37.572c-12.403,0.995-22.25,11.435-22.25,24.083
	v256.802h228.675v-256.802C1903.354,1393.934,1893.507,1383.494,1881.103,1382.499z"/>
<path style="fill:#146071;" d="M2029.562,558.189v62.606h54.068v-62.606c0-2.991-2.329-5.459-5.261-5.695
	c0.726-2.921,0.176-6.34-1.318-8.883c-2.175-3.707-5.877-6.165-9.629-8.119c-3.659-1.905-7.52-3.482-10.826-5.975
	c-3.304,2.493-7.166,4.07-10.825,5.975c-3.752,1.954-7.453,4.413-9.629,8.119c-1.493,2.543-2.044,5.963-1.318,8.883
	C2031.89,552.73,2029.562,555.198,2029.562,558.189z"/>
<path style="fill:#146071;" d="M2077.051,760.758c-2.175-3.707-5.877-6.166-9.629-8.12c-3.659-1.905-7.52-3.482-10.826-5.975
	c-3.304,2.493-7.166,4.07-10.825,5.975c-3.752,1.954-7.453,4.413-9.629,8.12c-1.493,2.542-2.044,5.962-1.318,8.883
	c-2.933,0.235-5.261,2.704-5.261,5.694v62.605h54.068v-62.605c0-2.99-2.329-5.459-5.261-5.694
	C2079.095,766.72,2078.545,763.3,2077.051,760.758z"/>
<path style="fill:#146071;" d="M290.944,558.189v62.606h54.068v-62.606c0-2.991-2.329-5.459-5.261-5.695
	c0.725-2.921,0.175-6.34-1.318-8.883c-2.177-3.707-5.879-6.165-9.629-8.119c-3.659-1.905-7.521-3.482-10.827-5.975
	c-3.305,2.493-7.167,4.07-10.826,5.975c-3.75,1.954-7.453,4.413-9.629,8.119c-1.493,2.543-2.043,5.963-1.318,8.883
	C293.272,552.73,290.944,555.198,290.944,558.189z"/>
<path style="fill:#146071;" d="M290.944,775.335v62.605h54.068v-62.605c0-2.99-2.329-5.459-5.261-5.694
	c0.725-2.921,0.175-6.34-1.318-8.883c-2.177-3.707-5.879-6.166-9.629-8.12c-3.659-1.905-7.521-3.482-10.827-5.975
	c-3.305,2.493-7.167,4.07-10.826,5.975c-3.75,1.954-7.453,4.413-9.629,8.12c-1.493,2.542-2.043,5.962-1.318,8.883
	C293.272,769.876,290.944,772.345,290.944,775.335z"/>
<path style="fill:#F09B34;" d="M1900.022,628.68c0.128-11.394,0.75-22.797-0.437-34.141c-1.48-14.147-6.066-28.539-16.771-39.514
	c-21.199-21.731-60.167-24.801-84.638-43.941c-12.261-9.59-19.843-22.515-24.009-36.285v-74.148c0-0.771-0.626-1.395-1.394-1.395
	c-0.768,0-1.395,0.624-1.395,1.395v72.115l-0.113,0.402l-0.005,0.138l-0.008,0.315c0.123,16.44,10.542,30.974,22.411,41.456
	c6.225,5.497,13.169,10.224,20.437,14.23c7.002,3.861,14.413,6.948,21.489,10.678c13.43,7.08,25.613,16.59,29.992,31.752
	c3.599,12.46,1.739,25.185-7.239,34.757c-8.184,8.728-20.055,13.473-31.275,16.86c-7.815,2.359-15.821,4.036-23.887,5.326h-136.965
	c-7.315-1.927-14.435-4.384-21.376-7.435l0-0.001l0,0.014c0.021,1.02,0.042,2.04,0.061,3.06l0.003,0.182
	c0.019,1.029,0.038,2.057,0.052,3.086v0.007l0.011,1.088"/>
<path style="fill:#F09B34;" d="M1916.893,642.638h-296.429c-4.568,0-8.578,2.405-10.903,5.991c2.255,3.603,6.146,6.077,10.691,6.077
	h296.853c4.539,0,8.462-2.445,10.721-6.041C1925.507,645.055,1921.48,642.638,1916.893,642.638z"/>
<path style="fill:#024D5E;" d="M1839.302,873.694c-11.222,3.549-23.09,5.454-35.368,5.454c-38.824,0-73.549-19.027-96.675-48.948
	v132.546h132.043V873.694z"/>
<rect x="689.795" y="654.706" style="fill:#F7A93F;" width="46.015" height="432.173"/>
<path style="fill:#F9B03A;" d="M1865.79,1151.271c24.922,34.691,38.629,72.551,38.629,112.191c0,31.544-8.683,61.96-24.786,90.55
	c3.055,9.084,3.738,19.361,1.471,28.487c12.403,0.995,22.249,11.435,22.249,24.083v256.802h98.961v-512.113H1865.79z"/>
<path style="fill:#F9B03A;" d="M1534.073,1550.224v113.16h140.606V1510.43C1631.959,1527.267,1584.68,1540.76,1534.073,1550.224z"/>
<rect x="1802.191" y="1086.878" transform="matrix(0.6947 -0.7193 0.7193 0.6947 -201.0492 1700.0605)" style="fill:#F9B03A;" width="200.123" height="0.001"/>
<path style="fill:#F9B03A;" d="M834.451,1567.245c-45.077-7.141-87.719-18.279-126.971-32.8v128.94h126.971V1567.245z"/>
<path style="fill:#F9B03A;" d="M478.807,1441.82v-35.237c0-11.767,8.523-21.622,19.698-23.738
	c-25.281-38.275-39.272-80.397-39.272-124.627c0-37.52,10.067-73.522,28.553-106.946H369.48v512.113h109.325v-221.566
	L478.807,1441.82z"/>
<path style="fill:#F7A93F;" d="M1534.073,1086.879V945.721h-187.237c42.09,58.773,66.156,126.549,66.156,198.771
	c0,224.615-232.02,406.701-518.233,406.701c-20.414,0-40.51-1.028-60.308-2.829v115.02h699.621v-512.113h468.241v-64.392H1534.073z"
	/>
<path style="fill:#F09B34;" d="M804.393,918.262c0,3.515,0.727,6.854,1.943,9.95c4.014-10.208,13.927-17.507,25.514-17.507h704.823
	c11.588,0,21.502,7.3,25.515,17.507c1.217-3.096,1.944-6.435,1.944-9.95c0-15.102-12.356-27.458-27.459-27.458h-37.35
	c0.47-24.38,1.284-48.759-1.254-73.028c-3.655-34.932-14.979-70.468-41.412-97.566c-52.344-53.658-148.563-61.238-208.986-108.498
	c-31.635-24.742-50.661-58.474-60.621-94.186v-63.996c0.818,0.021,1.638,0.031,2.46,0.031c36.773,0,68.659-20.913,84.42-51.492
	c-16.531,13.977-37.901,22.409-61.244,22.409c-52.422,0-94.918-42.496-94.918-94.918c0-15.648,3.79-30.411,10.496-43.424
	c-20.592,17.411-33.672,43.43-33.672,72.509c0,49.714,38.22,90.499,86.879,94.58v63.992l-0.246,0.875l-0.009,0.348l-0.024,0.77
	c0.306,40.594,26.031,76.48,55.337,102.362c15.37,13.573,32.517,25.244,50.461,35.136c17.292,9.534,35.591,17.157,53.061,26.367
	c33.161,17.481,63.243,40.963,74.057,78.4c8.888,30.767,4.294,62.186-17.872,85.822c-20.209,21.552-49.522,33.268-77.223,41.631
	c-2.145,0.648-4.296,1.271-6.452,1.879H886.451c-5.849-2.203-11.646-4.562-17.394-7.088c0.049,2.363,0.096,4.726,0.142,7.088H831.85
	C816.748,890.804,804.393,903.16,804.393,918.262z"/>
<path style="fill:#F09B34;" d="M736.756,642.638h-296.43c-4.588,0-8.618,2.421-10.937,6.034l-0.064,0.106
	c2.282,3.549,6.28,5.928,10.789,5.928h296.853c4.607,0,8.471-2.356,10.726-6.034C745.376,645.059,741.346,642.638,736.756,642.638z"
	/>
<path style="fill:#F09B34;" d="M492.13,628.68h-6.05c-7.315-1.927-14.435-4.384-21.376-7.435l0-0.001l0,0.012
	c0.043,2.11,0.087,4.22,0.116,6.33v0.007l0.011,1.088h-0.293v0.001L492.13,628.68L492.13,628.68z"/>
<path style="fill:#F09B34;" d="M646.932,623.354c-7.815,2.359-15.821,4.036-23.888,5.326h-0.07v0.001h97.732v-0.001h-0.822
	c0.128-11.394,0.751-22.797-0.436-34.141c-1.48-14.147-6.066-28.539-16.771-39.514c-21.199-21.731-60.167-24.801-84.638-43.941
	c-12.449-9.737-20.074-22.911-24.198-36.918v-73.515c0-0.771-0.626-1.395-1.394-1.395c-0.768,0-1.394,0.624-1.394,1.395v72.906
	l0.072-0.251l-0.008,0.315c0.123,16.44,10.542,30.974,22.41,41.456c6.226,5.497,13.169,10.224,20.438,14.23
	c7.002,3.861,14.413,6.948,21.489,10.678c13.43,7.08,25.613,16.59,29.992,31.752c3.6,12.46,1.739,25.185-7.238,34.757
	C670.023,615.222,658.152,619.968,646.932,623.354z"/>
<path style="fill:#024D5E;" d="M707.48,1517.143c-19.434,6.146-39.987,9.446-61.252,9.446c-67.238,0-127.374-32.952-167.422-84.769
	l-0.001-0.001v221.566H707.48V1517.143z"/>
<path style="fill:#024D5E;" d="M659.165,873.694c-11.222,3.549-23.09,5.454-35.368,5.454c-38.824,0-73.549-19.027-96.675-48.948
	v132.546h132.043V873.694z"/>
<path style="fill:#024D5E;" d="M1842.1,1526.589c-67.237,0-127.373-32.953-167.422-84.77v221.566h228.674v-146.242
	C1883.919,1523.289,1863.365,1526.589,1842.1,1526.589z"/>
<path style="fill:#F7A93F;" d="M2071.424,1663.385h36.675V933.22c-13.032-2.84-25.316-4.494-36.675-5.32V1663.385z"/>
<path style="fill:#F7A93F;" d="M2071.424,537.861c2.24,1.539,4.244,3.392,5.629,5.75c1.492,2.543,2.042,5.963,1.316,8.883
	c2.933,0.235,5.261,2.704,5.261,5.695v62.605h-12.206v42.196c12.49,0.727,24.92,2.534,36.675,5.135V498.514
	c-13.032-2.84-25.316-4.494-36.675-5.32V537.861z"/>
<path style="fill:#F7A93F;" d="M2071.424,717.309v37.699c2.24,1.539,4.244,3.391,5.629,5.75c1.492,2.543,2.042,5.963,1.316,8.884
	c2.933,0.235,5.261,2.704,5.261,5.694v62.606h-12.206v35.641c12.49,0.727,24.92,2.534,36.675,5.136V722.629
	C2095.066,719.789,2082.783,718.135,2071.424,717.309z"/>
<path style="fill:#024D5E;" d="M2083.63,584.33c-4.595,1.454-9.454,2.234-14.481,2.234c-15.897,0-30.116-7.791-39.586-20.043v54.274
	h54.068V584.33z"/>
<path style="fill:#024D5E;" d="M2029.562,783.667v54.274h54.068v-36.464c-4.595,1.453-9.454,2.233-14.481,2.233
	C2053.251,803.71,2039.033,795.919,2029.562,783.667z"/>
<path style="fill:#F7A93F;" d="M369.48,933.22c-13.032-2.84-25.316-4.494-36.674-5.32v735.485h36.674V933.22z"/>
<path style="fill:#F7A93F;" d="M332.806,755.009c2.24,1.539,4.243,3.391,5.627,5.749c1.492,2.543,2.043,5.963,1.318,8.884
	c2.932,0.235,5.26,2.704,5.26,5.694v62.606h-12.206v35.641c12.49,0.727,24.919,2.535,36.674,5.136V722.629
	c-13.032-2.84-25.316-4.494-36.674-5.32V755.009z"/>
<path style="fill:#F7A93F;" d="M332.806,537.862c2.24,1.539,4.243,3.391,5.627,5.75c1.492,2.543,2.043,5.963,1.318,8.883
	c2.932,0.235,5.26,2.704,5.26,5.695v62.605h-12.206v42.196c12.49,0.727,24.919,2.534,36.674,5.136V498.514
	c-13.032-2.84-25.316-4.494-36.674-5.32V537.862z"/>
<path style="fill:#F09B34;" d="M322.591,320.436c3.306,7.054,8.024,13.326,12.568,19.618c8.977,12.435,17.975,25.234,21.642,40.386
	c5.177,21.4-0.803,44.282-17.596,58.899l-0.538,0.465c-5.772,4.897-12.427,8.37-19.471,10.812h60.487
	c0.676-1.171,1.329-2.362,1.959-3.568c3.26-6.24,5.883-12.922,7.472-19.751c0.197-0.843,0.377-1.688,0.54-2.535
	c0.1-0.515,0.194-1.032,0.281-1.548c0.104-0.615,0.2-1.23,0.286-1.846c0.079-0.567,0.151-1.134,0.214-1.702
	c0.064-0.567,0.118-1.135,0.166-1.703c0.047-0.568,0.086-1.136,0.117-1.703c0.061-1.136,0.089-2.271,0.08-3.404l-0.012-0.85
	c-0.013-0.566-0.036-1.132-0.066-1.697c-0.03-0.544-0.069-1.088-0.117-1.63l-0.012-0.137c-0.048-0.539-0.104-1.077-0.17-1.613
	c-0.068-0.562-0.147-1.122-0.235-1.682c-0.08-0.508-0.169-1.014-0.267-1.52c-0.115-0.609-0.242-1.216-0.383-1.821
	c-0.321-1.386-0.707-2.762-1.16-4.125c-0.181-0.544-0.372-1.084-0.571-1.618c-0.2-0.534-0.407-1.063-0.624-1.586
	c-0.218-0.524-0.442-1.043-0.676-1.557c-0.7-1.542-1.476-3.04-2.315-4.5c-0.419-0.73-0.855-1.45-1.306-2.162
	c-1.652-2.609-3.504-5.099-5.494-7.503l-0.628-0.75l-0.956-1.112l-0.141-0.162c-0.728-0.832-1.472-1.654-2.23-2.468l-1.177-1.252
	l-1.197-1.24l-0.907-0.921l-0.611-0.613l-0.92-0.915l-1.223-1.196l-0.66-0.64c-0.615-0.595-1.233-1.187-1.855-1.778l-0.661-0.629
	l-1.191-1.127l-0.702-0.662l-1.188-1.118c-2.323-2.187-4.637-4.368-6.88-6.576c-6.319-6.217-12.218-12.871-17.66-19.895
	c-0.389-0.501-0.775-1.006-1.159-1.511c-1.535-2.022-3.034-4.074-4.493-6.154c-0.365-0.52-0.727-1.042-1.088-1.566
	c-1.8-2.617-3.539-5.278-5.217-7.98c-0.67-1.081-1.332-2.168-1.983-3.261c-0.976-1.64-1.929-3.294-2.859-4.961l-0.191-0.345v-74.648
	c0-0.771-0.626-1.395-1.395-1.395s-1.395,0.624-1.395,1.395v73.758c0.298-0.543,0.594-1.088,0.886-1.633
	C319.094,311.91,320.636,316.264,322.591,320.436z M317.974,307.016v-0.001h0.001l0,0l0,0L317.974,307.016l-0.008,0.015
	L317.974,307.016z"/>
<path style="fill:#024D5E;" d="M345.012,584.33c-4.595,1.454-9.455,2.234-14.483,2.234c-15.898,0-30.116-7.792-39.585-20.044v54.274
	h54.068V584.33z"/>
<path style="fill:#024D5E;" d="M345.012,801.477c-4.595,1.453-9.455,2.233-14.483,2.233c-15.898,0-30.116-7.791-39.585-20.044
	v54.275h54.068V801.477z"/>
<path style="fill:#FED797;" d="M1148.97,1290.42c60.177-80.643,97.972-177.742,108.437-277.808H902.908l-2.969,465.221
	C996.913,1439.826,1086.677,1373.896,1148.97,1290.42z"/>
<path style="fill:#FED797;" d="M1172.5,751.04c21.688-40.058-22.033-86.089-13.308-130.797
	c-11.631,25.301-36.208,42.277-61.592,53.725c-25.384,11.449-52.608,18.652-77.372,31.387
	c-53.187,27.353-92.091,80.88-101.694,139.912c49.753-37.007,100.119-44.87,161.432-54.121
	C1114.557,785.927,1155.845,781.804,1172.5,751.04z"/>
<path style="fill:#F09B34;" d="M2061.209,320.436c3.308,7.054,8.025,13.326,12.568,19.618c8.977,12.435,17.974,25.234,21.642,40.386
	c5.177,21.4-0.804,44.282-17.596,58.899l-0.538,0.465c-5.773,4.897-12.427,8.37-19.471,10.812h60.487
	c0.676-1.171,1.329-2.362,1.958-3.568c2.59-4.956,4.777-10.191,6.365-15.557c0.163-0.556,0.321-1.114,0.472-1.672
	c0.151-0.558,0.297-1.118,0.434-1.679c0.137-0.561,0.268-1.123,0.392-1.686l0.18-0.845c0.107-0.519,0.208-1.039,0.303-1.56
	c0.162-0.892,0.308-1.786,0.432-2.681c0.081-0.567,0.151-1.134,0.215-1.702c0.063-0.567,0.119-1.135,0.167-1.703
	c0.046-0.568,0.086-1.136,0.116-1.703l0.039-0.852c0.034-0.851,0.048-1.702,0.042-2.552l-0.012-0.85
	c-0.02-0.849-0.058-1.697-0.119-2.544c-0.041-0.564-0.09-1.128-0.15-1.691l-0.095-0.843c-0.379-3.09-1.048-6.148-2.045-9.149
	c-2.703-8.137-7.489-15.065-13.143-21.439l-0.126-0.143c-0.549-0.617-1.106-1.229-1.669-1.836l-0.587-0.628
	c-0.59-0.626-1.186-1.247-1.788-1.864l-0.907-0.921l-0.916-0.918l-0.616-0.61l-0.617-0.606l-1.263-1.23
	c-1.436-1.386-2.885-2.758-4.336-4.126l-0.073-0.07c-1.449-1.365-2.898-2.725-4.332-4.089l-0.064-0.06
	c-1.024-0.974-2.041-1.95-3.045-2.931l-0.628-0.615l-1.347-1.339c-0.571-0.572-1.137-1.148-1.701-1.728
	c-1.69-1.739-3.348-3.508-4.975-5.31c-10.149-11.24-19.027-23.67-26.438-36.951l-0.191-0.346v-74.647
	c0-0.771-0.626-1.395-1.395-1.395c-0.768,0-1.395,0.624-1.395,1.395v73.76c0.298-0.543,0.594-1.088,0.888-1.634
	C2057.712,311.911,2059.254,316.264,2061.209,320.436z M2056.593,307.015v0.001V307.015z"/>
</svg>
